# xmcd
# Track frame offsets:
# 150
# 13265
# 27020
# 40027
# 57175
# 72730
# 86454
# 100029
# 118329
# 131985
#
# Disc length: 1971 seconds
# Revision: 0
# Processed by: cddbd v1.4PL0 Copyright (c) Steve Scherf et al.
# Submitted via: VisiTrax 2.9.5.180 - For more info visit www.synapsa.com
#
DISCID=8807b10a
DTITLE=Chris Wyatt - Foolish Heart
DYEAR=1999
DGENRE=
TTITLE0=Foolish heart
TTITLE1=Am I loosing you
TTITLE2=Texas summer sunday afternoon
TTITLE3=Since you're not around
TTITLE4=Movin' on
TTITLE5=I know your heart
TTITLE6=I'd rather be lonely
TTITLE7=To fall in love
TTITLE8=Countrified
TTITLE9=Honky tonk wiggle
EXTD=
EXTT0=
EXTT1=
EXTT2=
EXTT3=
EXTT4=
EXTT5=
EXTT6=
EXTT7=
EXTT8=
EXTT9=
PLAYORDER=
